<svg width="780" height="144" viewBox="0 0 780 144" fill="none" xmlns="http://www.w3.org/2000/svg">
<path d="M6.57821 139L43.8004 5H773.809L744.962 139H6.57821Z" stroke="white" stroke-width="10"/>
<path d="M165.216 64.8977H151.011C150.822 63.4394 150.434 62.1231 149.847 60.9489C149.259 59.7746 148.483 58.7708 147.517 57.9375C146.551 57.1042 145.405 56.4697 144.08 56.0341C142.773 55.5795 141.324 55.3523 139.733 55.3523C136.911 55.3523 134.477 56.0436 132.432 57.4261C130.405 58.8087 128.843 60.8068 127.744 63.4205C126.665 66.0341 126.125 69.197 126.125 72.9091C126.125 76.7727 126.674 80.0114 127.773 82.625C128.89 85.2197 130.453 87.1799 132.46 88.5057C134.487 89.8125 136.883 90.4659 139.648 90.4659C141.201 90.4659 142.612 90.267 143.881 89.8693C145.169 89.4716 146.295 88.8939 147.261 88.1364C148.246 87.3598 149.051 86.4223 149.676 85.3239C150.32 84.2064 150.765 82.947 151.011 81.5455L165.216 81.6307C164.97 84.2064 164.222 86.7443 162.972 89.2443C161.741 91.7443 160.045 94.0265 157.886 96.0909C155.727 98.1364 153.095 99.7652 149.989 100.977C146.902 102.189 143.36 102.795 139.364 102.795C134.098 102.795 129.383 101.64 125.216 99.3295C121.068 97 117.792 93.6098 115.386 89.1591C112.981 84.7083 111.778 79.2917 111.778 72.9091C111.778 66.5076 113 61.0814 115.443 56.6307C117.886 52.1799 121.191 48.7992 125.358 46.4886C129.525 44.178 134.193 43.0227 139.364 43.0227C142.886 43.0227 146.144 43.5152 149.136 44.5C152.129 45.4659 154.761 46.8864 157.034 48.7614C159.307 50.6174 161.153 52.8996 162.574 55.608C163.994 58.3163 164.875 61.4129 165.216 64.8977ZM228.178 72.9091C228.178 79.3106 226.946 84.7367 224.484 89.1875C222.022 93.6383 218.689 97.0189 214.484 99.3295C210.299 101.64 205.602 102.795 200.393 102.795C195.166 102.795 190.46 101.631 186.274 99.3011C182.089 96.9716 178.765 93.5909 176.303 89.1591C173.859 84.7083 172.638 79.2917 172.638 72.9091C172.638 66.5076 173.859 61.0814 176.303 56.6307C178.765 52.1799 182.089 48.7992 186.274 46.4886C190.46 44.178 195.166 43.0227 200.393 43.0227C205.602 43.0227 210.299 44.178 214.484 46.4886C218.689 48.7992 222.022 52.1799 224.484 56.6307C226.946 61.0814 228.178 66.5076 228.178 72.9091ZM213.803 72.9091C213.803 69.1212 213.263 65.9205 212.183 63.3068C211.123 60.6932 209.589 58.714 207.581 57.3693C205.592 56.0246 203.196 55.3523 200.393 55.3523C197.609 55.3523 195.214 56.0246 193.206 57.3693C191.198 58.714 189.655 60.6932 188.575 63.3068C187.515 65.9205 186.984 69.1212 186.984 72.9091C186.984 76.697 187.515 79.8977 188.575 82.5114C189.655 85.125 191.198 87.1042 193.206 88.4489C195.214 89.7936 197.609 90.4659 200.393 90.4659C203.196 90.4659 205.592 89.7936 207.581 88.4489C209.589 87.1042 211.123 85.125 212.183 82.5114C213.263 79.8977 213.803 76.697 213.803 72.9091ZM236.388 43.8182H253.803L268.575 79.8409H269.257L284.03 43.8182H301.445V102H287.751V66.2614H287.268L273.291 101.631H264.541L250.564 66.0625H250.081V102H236.388V43.8182ZM324.278 43.8182V102H310.216V43.8182H324.278ZM385.919 64.8977H371.714C371.525 63.4394 371.137 62.1231 370.55 60.9489C369.963 59.7746 369.186 58.7708 368.22 57.9375C367.254 57.1042 366.108 56.4697 364.783 56.0341C363.476 55.5795 362.027 55.3523 360.436 55.3523C357.614 55.3523 355.18 56.0436 353.135 57.4261C351.108 58.8087 349.546 60.8068 348.447 63.4205C347.368 66.0341 346.828 69.197 346.828 72.9091C346.828 76.7727 347.377 80.0114 348.476 82.625C349.593 85.2197 351.156 87.1799 353.163 88.5057C355.19 89.8125 357.586 90.4659 360.351 90.4659C361.904 90.4659 363.315 90.267 364.584 89.8693C365.872 89.4716 366.999 88.8939 367.964 88.1364C368.949 87.3598 369.754 86.4223 370.379 85.3239C371.023 84.2064 371.468 82.947 371.714 81.5455L385.919 81.6307C385.673 84.2064 384.925 86.7443 383.675 89.2443C382.444 91.7443 380.749 94.0265 378.589 96.0909C376.43 98.1364 373.798 99.7652 370.692 100.977C367.605 102.189 364.063 102.795 360.067 102.795C354.802 102.795 350.086 101.64 345.919 99.3295C341.771 97 338.495 93.6098 336.089 89.1591C333.684 84.7083 332.482 79.2917 332.482 72.9091C332.482 66.5076 333.703 61.0814 336.146 56.6307C338.589 52.1799 341.894 48.7992 346.061 46.4886C350.228 44.178 354.896 43.0227 360.067 43.0227C363.589 43.0227 366.847 43.5152 369.839 44.5C372.832 45.4659 375.464 46.8864 377.737 48.7614C380.01 50.6174 381.857 52.8996 383.277 55.608C384.697 58.3163 385.578 61.4129 385.919 64.8977ZM424.364 43.8182L437.375 86.4318H437.858L450.869 43.8182H466.608L446.977 102H428.256L408.625 43.8182H424.364ZM472.872 102V43.8182H513.44V55.2386H486.935V67.1705H511.366V78.6193H486.935V90.5795H513.44V102H472.872ZM522.247 102V43.8182H546.281C550.637 43.8182 554.397 44.6042 557.56 46.1761C560.741 47.7292 563.194 49.964 564.918 52.8807C566.641 55.7784 567.503 59.2159 567.503 63.1932C567.503 67.2273 566.622 70.6553 564.861 73.4773C563.099 76.2803 560.599 78.4205 557.361 79.8977C554.122 81.3561 550.287 82.0852 545.855 82.0852H530.656V71.0057H543.241C545.363 71.0057 547.134 70.7311 548.554 70.1818C549.993 69.6136 551.082 68.7614 551.821 67.625C552.56 66.4697 552.929 64.9924 552.929 63.1932C552.929 61.3939 552.56 59.9072 551.821 58.733C551.082 57.5398 549.993 56.6496 548.554 56.0625C547.115 55.4564 545.344 55.1534 543.241 55.1534H536.31V102H522.247ZM555.003 75.4091L569.491 102H554.151L539.946 75.4091H555.003ZM606.665 61.2614C606.475 59.178 605.633 57.5587 604.136 56.4034C602.659 55.2292 600.547 54.642 597.801 54.642C595.983 54.642 594.468 54.8788 593.256 55.3523C592.044 55.8258 591.134 56.4792 590.528 57.3125C589.922 58.1269 589.61 59.0644 589.591 60.125C589.553 60.9962 589.723 61.7633 590.102 62.4261C590.5 63.089 591.068 63.6761 591.807 64.1875C592.564 64.6799 593.473 65.1155 594.534 65.4943C595.595 65.8731 596.788 66.2045 598.114 66.4886L603.114 67.625C605.992 68.25 608.53 69.0833 610.727 70.125C612.943 71.1667 614.799 72.4072 616.295 73.8466C617.811 75.286 618.956 76.9432 619.733 78.8182C620.509 80.6932 620.907 82.7955 620.926 85.125C620.907 88.7992 619.979 91.9527 618.142 94.5852C616.305 97.2178 613.663 99.2348 610.216 100.636C606.788 102.038 602.65 102.739 597.801 102.739C592.934 102.739 588.691 102.009 585.074 100.551C581.456 99.0928 578.644 96.8769 576.636 93.9034C574.629 90.9299 573.597 87.1705 573.54 82.625H587.006C587.119 84.5 587.621 86.0625 588.511 87.3125C589.402 88.5625 590.623 89.5095 592.176 90.1534C593.748 90.7973 595.566 91.1193 597.631 91.1193C599.525 91.1193 601.134 90.8636 602.46 90.3523C603.805 89.8409 604.837 89.1307 605.557 88.2216C606.277 87.3125 606.646 86.2708 606.665 85.0966C606.646 83.9981 606.305 83.0606 605.642 82.2841C604.979 81.4886 603.956 80.8068 602.574 80.2386C601.21 79.6515 599.468 79.1117 597.347 78.6193L591.267 77.1989C586.229 76.0436 582.261 74.178 579.364 71.6023C576.466 69.0076 575.027 65.5038 575.045 61.0909C575.027 57.4924 575.992 54.339 577.943 51.6307C579.894 48.9223 582.593 46.8106 586.04 45.2955C589.487 43.7803 593.417 43.0227 597.83 43.0227C602.337 43.0227 606.248 43.7898 609.562 45.3239C612.896 46.839 615.481 48.9697 617.318 51.7159C619.155 54.4621 620.093 57.6439 620.131 61.2614H606.665ZM628.028 102V43.8182H668.597V55.2386H642.091V67.1705H666.523V78.6193H642.091V90.5795H668.597V102H628.028Z" fill="white"/>
</svg>
