<svg width="25" height="25" viewBox="0 0 25 25" fill="none" xmlns="http://www.w3.org/2000/svg">
<path d="M11.2776 4.95131H4.27759C3.74715 4.95131 3.23845 5.16202 2.86337 5.5371C2.4883 5.91217 2.27759 6.42088 2.27759 6.95131V20.9513C2.27759 21.4817 2.4883 21.9904 2.86337 22.3655C3.23845 22.7406 3.74715 22.9513 4.27759 22.9513H18.2776C18.808 22.9513 19.3167 22.7406 19.6918 22.3655C20.0669 21.9904 20.2776 21.4817 20.2776 20.9513V13.9513" stroke="black" stroke-width="2" stroke-linecap="round" stroke-linejoin="round"/>
<path d="M18.7776 3.45131C19.1754 3.05348 19.715 2.82999 20.2776 2.82999C20.8402 2.82999 21.3798 3.05348 21.7776 3.45131C22.1754 3.84913 22.3989 4.3887 22.3989 4.95131C22.3989 5.51392 22.1754 6.05348 21.7776 6.45131L12.2776 15.9513L8.27759 16.9513L9.27759 12.9513L18.7776 3.45131Z" stroke="black" stroke-width="2" stroke-linecap="round" stroke-linejoin="round"/>
</svg>
